<?xml version="1.0" encoding="UTF-8" standalone="no"?>
<svg width="80px" height="142px" viewbox="0 0 80 142" version="1.1" xmlns="http://www.w3.org/2000/svg" xmlns:xlink="http://www.w3.org/1999/xlink" xmlns:sketch="http://www.bohemiancoding.com/sketch/ns">
    <!-- Generator: Sketch 3.3.3 (12072) - http://www.bohemiancoding.com/sketch -->
    <title>arm-sprite</title>
    <desc>Created with Sketch.</desc>
    <defs></defs>
    <g id="Page-1" stroke="none" stroke-width="1" fill="none" fill-rule="evenodd" sketch:type="MSPage">
        <g id="arm-sprite" sketch:type="MSLayerGroup">
            <g id="Page-1" sketch:type="MSShapeGroup">
                <g id="arm-sprite">
                    <g id="magnifying-lens">
                        <g id="Shape-+-Shape-Copy">
                            <path d="M12.4615385,7.61538462 C12.4615385,6.28125 11.9873798,5.14002404 11.0390625,4.19170673 C10.0907452,3.24338942 8.94951923,2.76923077 7.61538462,2.76923077 C6.28125,2.76923077 5.14002404,3.24338942 4.19170673,4.19170673 C3.24338942,5.14002404 2.76923077,6.28125 2.76923077,7.61538462 C2.76923077,8.94951923 3.24338942,10.0907452 4.19170673,11.0390625 C5.14002404,11.9873798 6.28125,12.4615385 7.61538462,12.4615385 C8.94951923,12.4615385 10.0907452,11.9873798 11.0390625,11.0390625 C11.9873798,10.0907452 12.4615385,8.94951923 12.4615385,7.61538462 L12.4615385,7.61538462 L12.4615385,7.61538462 Z M18,16.6153846 C18,16.9903846 17.8629808,17.3149038 17.5889423,17.5889423 C17.3149038,17.8629808 16.9903846,18 16.6153846,18 C16.2259615,18 15.9014423,17.8629808 15.6418269,17.5889423 L11.9314904,13.8894231 C10.640625,14.7836538 9.20192308,15.2307692 7.61538462,15.2307692 C6.58413462,15.2307692 5.59795673,15.030649 4.65685096,14.6304087 C3.71574519,14.2301683 2.90444712,13.6893029 2.22295673,13.0078125 C1.54146635,12.3263221 1.00060096,11.515024 0.600360577,10.5739183 C0.200120192,9.6328125 0,8.64663462 0,7.61538462 C0,6.58413462 0.200120192,5.59795673 0.600360577,4.65685096 C1.00060096,3.71574519 1.54146635,2.90444712 2.22295673,2.22295673 C2.90444712,1.54146635 3.71574519,1.00060096 4.65685096,0.600360577 C5.59795673,0.200120192 6.58413462,0 7.61538462,0 C8.64663462,0 9.6328125,0.200120192 10.5739183,0.600360577 C11.515024,1.00060096 12.3263221,1.54146635 13.0078125,2.22295673 C13.6893029,2.90444712 14.2301683,3.71574519 14.6304087,4.65685096 C15.030649,5.59795673 15.2307692,6.58413462 15.2307692,7.61538462 C15.2307692,9.20192308 14.7836538,10.640625 13.8894231,11.9314904 L17.5997596,15.6418269 C17.8665865,15.9086538 18,16.2331731 18,16.6153846 L18,16.6153846 L18,16.6153846 Z" id="Shape" fill="#555A5A"></path>
                            <path d="M12.4615385,45.6153846 C12.4615385,44.28125 11.9873798,43.140024 11.0390625,42.1917067 C10.0907452,41.2433894 8.94951923,40.7692308 7.61538462,40.7692308 C6.28125,40.7692308 5.14002404,41.2433894 4.19170673,42.1917067 C3.24338942,43.140024 2.76923077,44.28125 2.76923077,45.6153846 C2.76923077,46.9495192 3.24338942,48.0907452 4.19170673,49.0390625 C5.14002404,49.9873798 6.28125,50.4615385 7.61538462,50.4615385 C8.94951923,50.4615385 10.0907452,49.9873798 11.0390625,49.0390625 C11.9873798,48.0907452 12.4615385,46.9495192 12.4615385,45.6153846 L12.4615385,45.6153846 L12.4615385,45.6153846 Z M18,54.6153846 C18,54.9903846 17.8629808,55.3149038 17.5889423,55.5889423 C17.3149038,55.8629808 16.9903846,56 16.6153846,56 C16.2259615,56 15.9014423,55.8629808 15.6418269,55.5889423 L11.9314904,51.8894231 C10.640625,52.7836538 9.20192308,53.2307692 7.61538462,53.2307692 C6.58413462,53.2307692 5.59795673,53.030649 4.65685096,52.6304087 C3.71574519,52.2301683 2.90444712,51.6893029 2.22295673,51.0078125 C1.54146635,50.3263221 1.00060096,49.515024 0.600360577,48.5739183 C0.200120192,47.6328125 0,46.6466346 0,45.6153846 C0,44.5841346 0.200120192,43.5979567 0.600360577,42.656851 C1.00060096,41.7157452 1.54146635,40.9044471 2.22295673,40.2229567 C2.90444712,39.5414663 3.71574519,39.000601 4.65685096,38.6003606 C5.59795673,38.2001202 6.58413462,38 7.61538462,38 C8.64663462,38 9.6328125,38.2001202 10.5739183,38.6003606 C11.515024,39.000601 12.3263221,39.5414663 13.0078125,40.2229567 C13.6893029,40.9044471 14.2301683,41.7157452 14.6304087,42.656851 C15.030649,43.5979567 15.2307692,44.5841346 15.2307692,45.6153846 C15.2307692,47.2019231 14.7836538,48.640625 13.8894231,49.9314904 L17.5997596,53.6418269 C17.8665865,53.9086538 18,54.2331731 18,54.6153846 L18,54.6153846 L18,54.6153846 Z" id="Shape-Copy" fill="#009FC1"></path>
                            <path d="M12.4615385,85.6153846 C12.4615385,84.28125 11.9873798,83.140024 11.0390625,82.1917067 C10.0907452,81.2433894 8.94951923,80.7692308 7.61538462,80.7692308 C6.28125,80.7692308 5.14002404,81.2433894 4.19170673,82.1917067 C3.24338942,83.140024 2.76923077,84.28125 2.76923077,85.6153846 C2.76923077,86.9495192 3.24338942,88.0907452 4.19170673,89.0390625 C5.14002404,89.9873798 6.28125,90.4615385 7.61538462,90.4615385 C8.94951923,90.4615385 10.0907452,89.9873798 11.0390625,89.0390625 C11.9873798,88.0907452 12.4615385,86.9495192 12.4615385,85.6153846 L12.4615385,85.6153846 L12.4615385,85.6153846 Z M18,94.6153846 C18,94.9903846 17.8629808,95.3149038 17.5889423,95.5889423 C17.3149038,95.8629808 16.9903846,96 16.6153846,96 C16.2259615,96 15.9014423,95.8629808 15.6418269,95.5889423 L11.9314904,91.8894231 C10.640625,92.7836538 9.20192308,93.2307692 7.61538462,93.2307692 C6.58413462,93.2307692 5.59795673,93.030649 4.65685096,92.6304087 C3.71574519,92.2301683 2.90444712,91.6893029 2.22295673,91.0078125 C1.54146635,90.3263221 1.00060096,89.515024 0.600360577,88.5739183 C0.200120192,87.6328125 0,86.6466346 0,85.6153846 C0,84.5841346 0.200120192,83.5979567 0.600360577,82.656851 C1.00060096,81.7157452 1.54146635,80.9044471 2.22295673,80.2229567 C2.90444712,79.5414663 3.71574519,79.000601 4.65685096,78.6003606 C5.59795673,78.2001202 6.58413462,78 7.61538462,78 C8.64663462,78 9.6328125,78.2001202 10.5739183,78.6003606 C11.515024,79.000601 12.3263221,79.5414663 13.0078125,80.2229567 C13.6893029,80.9044471 14.2301683,81.7157452 14.6304087,82.656851 C15.030649,83.5979567 15.2307692,84.5841346 15.2307692,85.6153846 C15.2307692,87.2019231 14.7836538,88.640625 13.8894231,89.9314904 L17.5997596,93.6418269 C17.8665865,93.9086538 18,94.2331731 18,94.6153846 L18,94.6153846 L18,94.6153846 Z" id="Shape-Copy-Copy" fill="#FFFFFF"></path>
                        </g>
                    </g>
                    <g id="white-logo" transform="translate(0.000000, 118.000000)" fill="#FFFFFF">
                        <path d="M16.2488847,0.0103759766 L26.6582573,24 L20.3801608,24 L18.4488243,19.2605489 L7.95426041,19.2605489 L6.20433122,24 L0.0174395385,24 L9.48369451,0.0103759766 L16.2488847,0.0103759766 L16.2488847,0.0103759766 Z M16.7429941,15.0699304 L12.9434629,5.74593244 L9.49973052,15.0699304 L16.7429941,15.0699304 L16.7429941,15.0699304 Z" id="Shape"></path>
                        <path d="M29.4239629,0.0103759766 L40.1390205,0.0103759766 C42.4625826,0.0103759766 44.351182,0.682311137 45.8058447,2.02720731 C47.2594815,3.37210349 47.9868129,4.99808399 47.9868129,6.90925225 C47.9868129,9.55185526 46.6131928,11.509187 43.8649267,12.7781699 C45.0692807,13.3259766 46.2131092,14.8021822 47.298464,17.2037093 C48.3838188,19.6062621 49.431217,21.8713504 50.4416844,24 L43.8833921,24 C43.4915154,23.2090656 42.8093217,21.704136 41.8368109,19.4831595 C40.8643002,17.262183 40.0313057,15.8372701 39.3388535,15.207395 C38.6464012,14.5775199 37.9057338,14.2636082 37.1158252,14.2636082 L35.3985436,14.2636082 L35.3985436,24 L29.422937,24 L29.4239629,0.0103759766 L29.4239629,0.0103759766 Z M35.3995695,4.40616554 L35.3995695,9.86679281 L38.5592035,9.86679281 C39.5665933,9.86679281 40.3647087,9.6287944 40.9545754,9.15382344 C41.5444422,8.67885248 41.8388626,8.00076219 41.8388626,7.11852671 C41.8388626,5.30994398 40.7001633,4.40513968 38.4217389,4.40513968 L35.3995695,4.40616554 L35.3995695,4.40616554 Z" id="Shape_1_"></path>
                        <path d="M73.8383641,0.0103759766 L79.032269,0.0103759766 L79.032269,23.9989741 L73.0576883,23.9989741 L73.0576883,9.02456568 L66.5773609,16.5461361 L65.6787118,16.5461361 L59.1983844,9.02456568 L59.1983844,23.9989741 L53.2238037,23.9989741 L53.2238037,0.0103759766 L58.4125794,0.0103759766 L66.1270105,8.90454062 L73.8383641,0.0103759766 L73.8383641,0.0103759766 Z" id="Shape_2_"></path>
                    </g>
                </g>
            </g>
        </g>
    </g>
</svg>
