<svg id="Layer_3" data-name="Layer 3" xmlns="http://www.w3.org/2000/svg" viewBox="0 0 214.55 49.33"><defs><style>.cls-1{fill:#128cab;}.cls-2{fill:#00c3dc;}</style></defs><title>University 2015 RGB</title><path class="cls-1" d="M9.51,36.55L5.86,45.76H5.63l-4.39-11H2.1l3.61,9.05,3.66-9.05H9.64l3.65,9.05,3.62-9.05h0.87l-4.4,11h-0.2Z"/><path class="cls-1" d="M21,38.32a3.49,3.49,0,0,1,2.61,1.07,3.93,3.93,0,0,1,0,5.33,3.73,3.73,0,0,1-5.22,0,3.91,3.91,0,0,1,0-5.33A3.51,3.51,0,0,1,21,38.32ZM21,45a2.69,2.69,0,0,0,2-.85,3.19,3.19,0,0,0,0-4.26,2.67,2.67,0,0,0-2-.86,2.7,2.7,0,0,0-2,.85,3.2,3.2,0,0,0,0,4.27A2.71,2.71,0,0,0,21,45Z"/><path class="cls-1" d="M31.27,39.17l-0.45.72a2.52,2.52,0,0,0-1.45-.82q-1.08,0-2.3,2.06v4.52H26.31V38.46h0.77v1.89h0q1.29-2,2.52-2A2.68,2.68,0,0,1,31.27,39.17Z"/><path class="cls-1" d="M33.16,34.73V45.65H32.38V34.73h0.77Z"/><path class="cls-1" d="M41.46,34.73V45.65H40.69V45.09a3.58,3.58,0,0,1-2.12.7A3.46,3.46,0,0,1,36,44.71a3.92,3.92,0,0,1,0-5.32,3.48,3.48,0,0,1,2.6-1.06,4.7,4.7,0,0,1,2.12.58V34.73h0.77Zm-0.77,9.65V39.74a3.8,3.8,0,0,0-2.09-.67,2.74,2.74,0,0,0-2,.82,2.89,2.89,0,0,0-.8,2.11,3,3,0,0,0,.86,2.17,2.9,2.9,0,0,0,2.15.87A3.34,3.34,0,0,0,40.69,44.38Z"/><path class="cls-1" d="M53.77,38.46l-3.11,7.33H50.29L48.08,40l-2.23,5.84H45.51l-3.08-7.33h0.75l2.45,5.86,2.26-5.86h0.42l2.19,5.86L53,38.46h0.76Z"/><path class="cls-1" d="M55.65,34.73V36H54.88V34.73h0.77Zm0,3.73v7.19H54.88V38.46h0.77Z"/><path class="cls-1" d="M64,34.73V45.65H63.18V45.09a3.59,3.59,0,0,1-2.12.7,3.46,3.46,0,0,1-2.58-1.08,3.92,3.92,0,0,1,0-5.32,3.48,3.48,0,0,1,2.6-1.06,4.7,4.7,0,0,1,2.12.58V34.73H64Zm-0.77,9.65V39.74a3.8,3.8,0,0,0-2.09-.67,2.74,2.74,0,0,0-2,.82,2.89,2.89,0,0,0-.8,2.11,3,3,0,0,0,.86,2.17,2.9,2.9,0,0,0,2.15.87A3.34,3.34,0,0,0,63.18,44.38Z"/><path class="cls-1" d="M72,41.79H66.38a3,3,0,0,0,0,.38,2.74,2.74,0,0,0,.86,2,2.81,2.81,0,0,0,2,.84A4.19,4.19,0,0,0,71.92,44v0.87a4.41,4.41,0,0,1-2.77,1,3.38,3.38,0,0,1-2.57-1.08,3.84,3.84,0,0,1-1-2.74,3.75,3.75,0,0,1,.94-2.61,3.2,3.2,0,0,1,4.62-.1A3.45,3.45,0,0,1,72,41.79Zm-5.56-.62h4.66a2.2,2.2,0,0,0-2.27-2.1,2.27,2.27,0,0,0-1.53.55A2.69,2.69,0,0,0,66.48,41.17Z"/><path class="cls-1" d="M84.27,34.73v0.7H79.16V39.8h5v0.71h-5v4.43h5.23v0.7H78.31V34.73h6Z"/><path class="cls-1" d="M92.06,34.73V45.65H91.29V45.09a3.59,3.59,0,0,1-2.12.7,3.46,3.46,0,0,1-2.58-1.08,3.92,3.92,0,0,1,0-5.32,3.48,3.48,0,0,1,2.6-1.06,4.7,4.7,0,0,1,2.12.58V34.73h0.77Zm-0.77,9.65V39.74a3.8,3.8,0,0,0-2.09-.67,2.74,2.74,0,0,0-2,.82,2.89,2.89,0,0,0-.8,2.11,3,3,0,0,0,.86,2.17,2.9,2.9,0,0,0,2.15.87A3.34,3.34,0,0,0,91.29,44.38Z"/><path class="cls-1" d="M99.1,45.65V44.46h0a3.37,3.37,0,0,1-1,1,2.65,2.65,0,0,1-1.34.3A2.61,2.61,0,0,1,94.78,45,2.86,2.86,0,0,1,94,42.91V38.46h0.77V42.9a2.17,2.17,0,0,0,.55,1.57,1.88,1.88,0,0,0,1.42.57A2.29,2.29,0,0,0,98,44.7a3.83,3.83,0,0,0,1.06-1.19v-5h0.77v7.19H99.1Z"/><path class="cls-1" d="M106.94,38.67v0.85a4.71,4.71,0,0,0-1.87-.45,2.51,2.51,0,0,0-2,.84,3.12,3.12,0,0,0-.75,2.17,3,3,0,0,0,.75,2.16,2.64,2.64,0,0,0,2,.8,5.13,5.13,0,0,0,1.94-.41v0.8a6.23,6.23,0,0,1-2,.37,3.4,3.4,0,0,1-2.55-1,3.61,3.61,0,0,1-1-2.62,4,4,0,0,1,1-2.77,3.24,3.24,0,0,1,2.5-1.07A6.2,6.2,0,0,1,106.94,38.67Z"/><path class="cls-1" d="M114.28,44.4V45a3,3,0,0,1-1.45.75,0.39,0.39,0,0,1-.37-0.18,2,2,0,0,1-.15-0.71,3.65,3.65,0,0,1-2.25.89,1.93,1.93,0,0,1-1.37-.53,1.71,1.71,0,0,1-.56-1.29,2.08,2.08,0,0,1,1.09-1.85,6.54,6.54,0,0,1,3.1-.78V40.43A1.36,1.36,0,0,0,110.72,39a3.68,3.68,0,0,0-2.2.91V39.09a4.39,4.39,0,0,1,2.32-.77,2.59,2.59,0,0,1,1.61.48,1.64,1.64,0,0,1,.63,1.39v4.48c0,0.25.06,0.37,0.17,0.37A2.8,2.8,0,0,0,114.28,44.4Zm-2-.17V42a4.43,4.43,0,0,0-2.45.52,1.68,1.68,0,0,0-1,1.46,1.07,1.07,0,0,0,.41.84,1.52,1.52,0,0,0,1,.34A3,3,0,0,0,112.31,44.23Z"/><path class="cls-1" d="M116.78,36.08v2.38h2v0.63h-2v4.27a3.48,3.48,0,0,0,.17,1.36,1,1,0,0,0,.9.32,3.18,3.18,0,0,0,1.31-.35v0.73a3.38,3.38,0,0,1-1.48.37,1.77,1.77,0,0,1-1.19-.41,1.4,1.4,0,0,1-.48-1.12V39.09h-1.94V38.46H116V36.75l0.52-.67h0.24Z"/><path class="cls-1" d="M121.1,34.73V36h-0.77V34.73h0.77Zm0,3.73v7.19h-0.77V38.46h0.77Z"/><path class="cls-1" d="M126.55,38.32a3.49,3.49,0,0,1,2.61,1.07,3.93,3.93,0,0,1,0,5.33,3.73,3.73,0,0,1-5.22,0,3.91,3.91,0,0,1,0-5.33A3.51,3.51,0,0,1,126.55,38.32Zm0,6.72a2.69,2.69,0,0,0,2-.85,3.19,3.19,0,0,0,0-4.26,2.67,2.67,0,0,0-2-.86,2.7,2.7,0,0,0-2,.85,3.2,3.2,0,0,0,0,4.27A2.71,2.71,0,0,0,126.55,45Z"/><path class="cls-1" d="M132.64,38.46v1.25h0A2.72,2.72,0,0,1,135,38.32a2.53,2.53,0,0,1,1.95.78,3.05,3.05,0,0,1,.73,2.16v4.38h-0.77V41.55q0-2.48-2-2.48a2.71,2.71,0,0,0-2.35,1.54v5h-0.77V38.46h0.77Z"/><path class="cls-1" d="M144.42,34.73h3a4,4,0,0,1,2.64.77,2.61,2.61,0,0,1,.92,2.11,2.67,2.67,0,0,1-.93,2.14,4.08,4.08,0,0,1-2.71.79h-2.09v5.1h-0.84V34.73Zm0.84,0.7v4.41h2a3.23,3.23,0,0,0,2.08-.58,2.21,2.21,0,0,0,0-3.23,3,3,0,0,0-2-.59h-2.13Z"/><path class="cls-1" d="M157.3,39.17l-0.45.72a2.52,2.52,0,0,0-1.45-.82q-1.08,0-2.3,2.06v4.52h-0.77V38.46h0.77v1.89h0q1.29-2,2.52-2A2.68,2.68,0,0,1,157.3,39.17Z"/><path class="cls-1" d="M161,38.32a3.49,3.49,0,0,1,2.61,1.07,3.93,3.93,0,0,1,0,5.33,3.73,3.73,0,0,1-5.22,0,3.91,3.91,0,0,1,0-5.33A3.51,3.51,0,0,1,161,38.32ZM161,45a2.69,2.69,0,0,0,2-.85,3.19,3.19,0,0,0,0-4.26,2.68,2.68,0,0,0-2-.86,2.7,2.7,0,0,0-2,.85,3.2,3.2,0,0,0,0,4.27A2.71,2.71,0,0,0,161,45Z"/><path class="cls-1" d="M172,38.46v0.63h-1.63a2.6,2.6,0,0,1,1,1.91,2.21,2.21,0,0,1-1.31,2.18,9.36,9.36,0,0,1-1.43.47,3.12,3.12,0,0,0-1.12.43,0.61,0.61,0,0,0-.23.47,0.57,0.57,0,0,0,.29.5,5.37,5.37,0,0,0,1.82.27,3.38,3.38,0,0,1,2.06.59,1.86,1.86,0,0,1-.32,2.86,5.35,5.35,0,0,1-4.7,0,1.6,1.6,0,0,1-.82-1.39q0-1.41,2.09-1.74v0a1.18,1.18,0,0,1-1.16-1q0-.76,1.44-1.17v0a2.67,2.67,0,0,1-1.43-.93,2.49,2.49,0,0,1,.3-3.3,3.26,3.26,0,0,1,2.27-.71H172Zm-3.19,10.23a3.55,3.55,0,0,0,1.78-.38,1.14,1.14,0,0,0,.66-1Q171.25,46,169,46q-2.61,0-2.61,1.33T168.81,48.69Zm-0.11-5.76A1.93,1.93,0,0,0,170.63,41a1.83,1.83,0,0,0-.57-1.35,1.89,1.89,0,0,0-1.37-.56,1.83,1.83,0,0,0-1.34.55A1.81,1.81,0,0,0,166.8,41a1.9,1.9,0,0,0,.55,1.38A1.81,1.81,0,0,0,168.71,42.93Z"/><path class="cls-1" d="M178.13,39.17l-0.45.72a2.52,2.52,0,0,0-1.45-.82q-1.08,0-2.3,2.06v4.52h-0.77V38.46h0.77v1.89h0q1.29-2,2.52-2A2.68,2.68,0,0,1,178.13,39.17Z"/><path class="cls-1" d="M184.62,44.4V45a3,3,0,0,1-1.45.75,0.39,0.39,0,0,1-.37-0.18,2,2,0,0,1-.15-0.71,3.65,3.65,0,0,1-2.25.89,1.92,1.92,0,0,1-1.37-.53,1.71,1.71,0,0,1-.56-1.29,2.08,2.08,0,0,1,1.09-1.85,6.53,6.53,0,0,1,3.1-.78V40.43A1.36,1.36,0,0,0,181.06,39a3.68,3.68,0,0,0-2.2.91V39.09a4.39,4.39,0,0,1,2.32-.77,2.59,2.59,0,0,1,1.61.48,1.64,1.64,0,0,1,.63,1.39v4.48c0,0.25.06,0.37,0.17,0.37A2.82,2.82,0,0,0,184.62,44.4Zm-2-.17V42a4.43,4.43,0,0,0-2.45.52,1.68,1.68,0,0,0-1,1.46,1.06,1.06,0,0,0,.41.84,1.51,1.51,0,0,0,1,.34A3,3,0,0,0,182.65,44.23Z"/><path class="cls-1" d="M186.44,38.46v1.27h0a2.61,2.61,0,0,1,2.29-1.41A2.37,2.37,0,0,1,191.08,40a2.92,2.92,0,0,1,2.5-1.73,2.26,2.26,0,0,1,1.8.8,3.13,3.13,0,0,1,.69,2.12v4.41H195.3V41.57a3,3,0,0,0-.49-1.83,1.61,1.61,0,0,0-1.38-.67,1.77,1.77,0,0,0-1.15.4,4.77,4.77,0,0,0-1,1.28v4.9h-0.77V41.55a2.91,2.91,0,0,0-.51-1.84,1.66,1.66,0,0,0-1.37-.64,2.58,2.58,0,0,0-2.16,1.54v5h-0.77V38.46h0.77Z"/><path class="cls-1" d="M26.35,23.19H20.13l-1.9-4.59H7.85L6.12,23.19H0L9.35,0H16ZM12.78,5.55l-3.4,9h7.14Z"/><path class="cls-1" d="M37.7,0c4.76,0,7.58,3.2,7.58,6.66,0,2.55-1.33,4.45-4,5.68,2.38,1.19,3.09,4,6.36,10.84H41.31c-2.48-5-3.4-9.42-6.53-9.42H33.11v9.42H27.33V0H37.7ZM33.11,9.53h3.06c1.6,0,3.16-.68,3.16-2.65,0-1.73-1.12-2.62-3.3-2.62H33.11V9.53Z"/><path class="cls-1" d="M69.42,0h5V23.19H68.68V8.71L62.42,16H61.54L55.28,8.71V23.19H49.5V0h5L62,8.61Z"/><path class="cls-2" d="M96,0h3.34V13.16a15.65,15.65,0,0,1-.39,4,8.75,8.75,0,0,1-1,2.27,7.23,7.23,0,0,1-1.4,1.62,10.65,10.65,0,0,1-7.21,2.37,10.76,10.76,0,0,1-7.27-2.36,7.52,7.52,0,0,1-1.4-1.63,8.48,8.48,0,0,1-.95-2.22,16.4,16.4,0,0,1-.37-4.12V0h3.34V13.16a9.76,9.76,0,0,0,.75,4.55,5.31,5.31,0,0,0,2.27,2.05,7.88,7.88,0,0,0,3.6.77A7.29,7.29,0,0,0,94.19,19a4.78,4.78,0,0,0,1.41-2A12.06,12.06,0,0,0,96,13.16V0Z"/><path class="cls-2" d="M105.72,7.92V9.86a6.07,6.07,0,0,1,4.6-2.24,5.06,5.06,0,0,1,2.66.74,4.82,4.82,0,0,1,1.87,2,9.68,9.68,0,0,1,.64,4.08v8.73h-3v-8.7a6,6,0,0,0-.71-3.34,2.73,2.73,0,0,0-2.39-1,4.35,4.35,0,0,0-3.64,2.14V23.19h-3.09V7.92h3.09Z"/><path class="cls-2" d="M120.41,1.49a1.77,1.77,0,0,1,1.28.51,1.69,1.69,0,0,1,.53,1.26,1.73,1.73,0,0,1-.53,1.26,1.74,1.74,0,0,1-1.28.53,1.67,1.67,0,0,1-1.23-.54,1.73,1.73,0,0,1-.53-1.25A1.71,1.71,0,0,1,119.18,2,1.67,1.67,0,0,1,120.41,1.49Zm-1.49,6.42h3V23.19h-3V7.92Z"/><path class="cls-2" d="M135.66,7.92h3.28l-6.75,15.54h-1L124.26,7.92h3.31l4.12,9.4Z"/><path class="cls-2" d="M153.19,15.82H142.45a5,5,0,0,0,1.47,3.49,4.85,4.85,0,0,0,3.5,1.29,9.09,9.09,0,0,0,5.51-1.86v3A10.05,10.05,0,0,1,150.16,23a11.55,11.55,0,0,1-3.21.4,7.21,7.21,0,0,1-4.08-1,7.6,7.6,0,0,1-2.5-2.81,8.6,8.6,0,0,1-.94-4.09,8.12,8.12,0,0,1,2-5.67,6.59,6.59,0,0,1,5.13-2.18,6,6,0,0,1,4.85,2.13,8.49,8.49,0,0,1,1.81,5.69v0.38ZM142.52,14h7.69a4.22,4.22,0,0,0-1.08-2.79,3.47,3.47,0,0,0-2.59-1,3.72,3.72,0,0,0-2.66,1A4.85,4.85,0,0,0,142.52,14Z"/><path class="cls-2" d="M159.7,7.92v3.5l0.17-.27q2.19-3.54,4.38-3.54a5.4,5.4,0,0,1,3.57,1.73L166.22,12a4.48,4.48,0,0,0-2.92-1.49,3.13,3.13,0,0,0-2.53,1.39,5.27,5.27,0,0,0-1.07,3.3v8h-3V7.92h3Z"/><path class="cls-2" d="M169.18,22.1V18.84a13.81,13.81,0,0,0,2.61,1.45,6.09,6.09,0,0,0,2.25.56,2.82,2.82,0,0,0,1.63-.46,1.34,1.34,0,0,0,.68-1.11,1.5,1.5,0,0,0-.44-1.1A10.24,10.24,0,0,0,174,16.9a13.47,13.47,0,0,1-3.83-2.78,4,4,0,0,1-.9-2.52,3.53,3.53,0,0,1,1.37-2.87,5.42,5.42,0,0,1,3.53-1.11,9.71,9.71,0,0,1,4.6,1.26v3a9.2,9.2,0,0,0-4.4-1.63,2.44,2.44,0,0,0-1.42.37,1.15,1.15,0,0,0-.54,1,1.42,1.42,0,0,0,.49,1,8.35,8.35,0,0,0,1.72,1.16l1.08,0.61q3.82,2.16,3.82,4.78a3.8,3.8,0,0,1-1.47,3.08,5.76,5.76,0,0,1-3.78,1.2,9.22,9.22,0,0,1-2.42-.29A16.35,16.35,0,0,1,169.18,22.1Z"/><path class="cls-2" d="M184.23,1.49a1.77,1.77,0,0,1,1.28.51A1.69,1.69,0,0,1,186,3.27a1.73,1.73,0,0,1-.53,1.26,1.74,1.74,0,0,1-1.28.53A1.67,1.67,0,0,1,183,4.52a1.73,1.73,0,0,1-.53-1.25A1.71,1.71,0,0,1,183,2,1.67,1.67,0,0,1,184.23,1.49Zm-1.49,6.42h3V23.19h-3V7.92Z"/><path class="cls-2" d="M188,10.34l5.68-5.58V7.92h4.83v2.72h-4.83v7.47q0,2.62,2.17,2.62a6.75,6.75,0,0,0,3.44-1.08v2.82a7.64,7.64,0,0,1-3.8,1A5,5,0,0,1,192,22.25a3.44,3.44,0,0,1-.71-0.82,4.39,4.39,0,0,1-.47-1.2,13.45,13.45,0,0,1-.19-2.81V10.64H188v-0.3Z"/><path class="cls-2" d="M211.16,7.92h3.39L203.73,31h-3.37l5.18-11.07-5.9-12h3.44l4.12,8.63Z"/></svg>